<?xml version="1.0" encoding="utf-8"?>
<svg viewBox="0 0 500 500" xmlns="http://www.w3.org/2000/svg" xmlns:xlink="http://www.w3.org/1999/xlink">
  <defs>
    <linearGradient id="f93e83ed-aae3-4939-a31b-02dcc6721011" x1="969.1404" y1="556.31063" x2="969.1404" y2="137.11639" gradientUnits="userSpaceOnUse">
      <stop offset="0" stop-color="gray" stop-opacity="0.25"/>
      <stop offset="0.5351" stop-color="gray" stop-opacity="0.12"/>
      <stop offset="1" stop-color="gray" stop-opacity="0.1"/>
    </linearGradient>
    <linearGradient id="e0229f75-5a20-4c1d-bfcf-9b57e2e8c95e" x1="355.66372" y1="691.67079" x2="355.66372" y2="298.97832" gradientTransform="matrix(0.696469, 0, 0, 0.696482, 2.792659, -81.091661)" xlink:href="#f93e83ed-aae3-4939-a31b-02dcc6721011"/>
  </defs>
  <title>Firmware</title>
  <path d="M 381.086 300.627 C 379.388 291.18 378.346 281.627 377.969 272.037 L 377.969 272.037 C 377.286 255.851 366.494 241.846 351.017 237.06 C 348.267 236.214 345.233 235.423 341.889 234.713 C 312.548 228.481 303.635 233.922 302.622 234.638 C 301.767 233.075 301.026 231.453 300.401 229.786 C 300.351 229.616 300.305 229.444 300.257 229.273 C 306.063 223.08 309.601 215.102 310.293 206.641 C 315.187 201.678 318.046 195.691 318.046 189.244 C 318.046 183.701 315.929 178.496 312.224 173.992 L 312.224 165.242 C 312.224 144.2 295.166 127.141 274.124 127.141 L 271.034 127.141 C 249.991 127.141 232.933 144.2 232.933 165.242 L 232.933 174.687 C 229.594 178.811 227.739 183.938 227.666 189.244 C 227.666 195.555 230.409 201.425 235.115 206.326 C 235.759 215.098 239.459 223.366 245.572 229.69 C 245.778 231.12 245.99 232.66 246.198 234.285 L 193.704 245.386 C 193.704 245.386 173.465 246.219 160.435 273.111 C 149.404 295.878 127.445 354.408 120.967 371.833 L 120.967 371.833 L 120.966 371.833 C 119.792 374.991 119.126 376.801 119.126 376.801 C 119.126 376.801 119.34 376.584 119.753 376.213 C 119.345 377.314 119.126 377.91 119.126 377.91 C 119.126 377.91 119.444 377.588 120.049 377.058 C 119.13 384.351 118.999 396.867 128.552 398.426 C 136.559 399.734 157.185 400.271 172.772 400.491 L 172.772 400.506 L 173.853 400.506 C 184.182 400.645 192.04 400.645 192.04 400.645 L 192.04 400.506 L 359.632 400.506 L 359.632 398.788 C 359.634 397.229 359.32 395.684 358.709 394.248 C 358.789 394.156 358.867 394.062 358.943 393.968 C 359.839 395.152 360.436 396.536 360.682 398.001 C 360.663 398.144 360.637 398.286 360.603 398.426 C 360.603 398.426 360.637 398.337 360.701 398.17 C 360.742 398.628 360.708 399.088 360.603 399.535 C 360.603 399.535 382.104 344.132 381.875 311.051 C 381.937 307.559 381.673 304.069 381.086 300.627 Z M 247.058 241.765 C 246.781 240.185 246.604 238.59 246.526 236.988 L 246.528 236.943 C 246.713 238.498 246.892 240.112 247.058 241.765 Z M 181.921 360.768 L 181.921 373.972 L 173.643 375.74 Z" fill="url(#e0229f75-5a20-4c1d-bfcf-9b57e2e8c95e)" style=""/>
  <path d="M 271.718 132.47 L 271.718 132.47 C 292.761 132.47 309.819 149.529 309.819 170.571 L 309.819 186.824 C 309.819 186.824 309.819 186.824 309.819 186.824 L 233.618 186.824 C 233.618 186.824 233.618 186.824 233.618 186.824 L 233.618 170.571 C 233.618 149.529 250.676 132.47 271.718 132.47 Z" style="fill: rgb(255, 109, 100);"/>
  <ellipse cx="271.985" cy="192.153" rx="43.429" ry="29.841" style="fill: rgb(255, 109, 100);"/>
  <path d="M 244.142 221.063 C 244.142 221.063 253.201 268.489 244.142 281.278 C 235.083 294.068 271.852 299.13 271.852 299.13 L 309.952 285.275 L 315.281 251.17 C 315.281 251.17 292.101 238.115 296.897 211.737 Z" fill="#f7c4a7" style=""/>
  <path d="M 356.579 380.928 C 356.579 380.928 358.977 391.319 345.922 393.184 C 338.212 394.319 330.371 394.225 322.69 392.908 L 319.81 366.806 L 350.185 366.806 Z" fill="#f7c4a7" style=""/>
  <path d="M 126.014 367.627 C 126.014 367.627 120.249 391.053 133.304 393.184 C 146.359 395.316 194.318 395.315 194.318 395.315 L 194.318 367.606 L 172.608 372.243 L 152.221 352.685 Z" fill="#f7c4a7" style=""/>
  <path d="M 246.94 236.383 L 195.917 247.174 C 195.917 247.174 176.467 247.973 163.944 273.818 C 151.422 299.663 124.245 373.467 124.245 373.467 C 124.245 373.467 147.425 350.02 174.602 375.066 L 192.72 342.294 L 188.723 394.25 L 329.136 394.25 L 329.136 369.737 C 329.136 369.737 358.444 385.457 356.312 394.25 C 356.312 394.25 381.392 329.629 375.998 300.261 C 374.366 291.182 373.364 282.002 373.002 272.785 L 373.002 272.785 C 372.346 257.23 361.974 243.771 347.1 239.172 C 344.457 238.358 341.542 237.598 338.328 236.916 C 308.22 230.521 300.494 236.916 300.494 236.916 C 300.494 236.916 294.661 255.892 294.765 264.492 C 294.898 275.55 279.045 282.877 279.045 282.877 C 279.045 282.877 255.599 277.282 254.533 272.752 C 253.467 268.223 245.075 241.712 246.94 236.383 Z" opacity="0.1" style=""/>
  <path d="M 246.94 235.317 L 195.917 246.108 C 195.917 246.108 176.467 246.907 163.944 272.752 C 151.422 298.597 124.245 372.402 124.245 372.402 C 124.245 372.402 147.425 348.955 174.602 374 L 192.72 341.228 L 188.723 393.184 L 329.136 393.184 L 329.136 368.671 C 329.136 368.671 358.444 384.392 356.312 393.184 C 356.312 393.184 381.392 328.564 375.998 299.195 C 374.366 290.117 373.364 280.936 373.002 271.719 L 373.002 271.719 C 372.346 256.165 361.974 242.705 347.1 238.106 C 344.457 237.293 341.542 236.533 338.328 235.85 C 308.22 229.455 300.494 235.85 300.494 235.85 C 300.494 235.85 294.661 254.827 294.765 263.427 C 294.898 274.484 279.045 281.811 279.045 281.811 C 279.045 281.811 255.599 276.216 254.533 271.686 C 253.467 267.157 245.075 240.646 246.94 235.317 Z" style="fill: rgb(255, 109, 100);"/>
  <path d="M 299.087 233.052 C 296.943 226.984 296.463 220.452 297.696 214.135 L 244.941 223.461 C 244.941 223.461 245.703 227.447 246.563 233.42 C 260.951 248.349 284.909 248.181 299.087 233.052 Z" opacity="0.1" style=""/>
  <path d="M 308.087 205.875 C 308.087 233.77 277.891 251.204 253.734 237.257 C 242.794 230.941 235.933 219.383 235.627 206.754 C 235.619 206.462 235.616 206.168 235.616 205.875 C 235.614 192.033 243.496 179.398 255.929 173.313 C 257.016 172.783 258.133 172.305 259.279 171.88 C 265.243 169.687 271.676 169.09 277.943 170.148 C 277.947 170.15 277.951 170.151 277.956 170.15 C 294.478 172.964 306.91 186.75 308.007 203.474 C 308.061 204.268 308.087 205.069 308.087 205.875 Z" fill="#f7c4a7" style=""/>
  <g opacity="0.1" transform="matrix(0.696469, 0, 0, 0.696482, 29.022879, -35.565445)" style="">
    <path d="M368.19321,364.43382a.767.767,0,0,1,.07268-.0459q-2.4675.91239-4.80871,2.05814a52.03939,52.03939,0,0,0-29.166,46.752c0,.42081.00383.84162.01527,1.26243a11.55728,11.55728,0,0,0,4.66719-1.12088c12.68553-5.91816,20.29454-24.03208,23.28228-36.664C363.32711,372.15379,364.35237,367.05818,368.19321,364.43382Z" transform="translate(-37.66167 -65.36599)"/>
    <path d="M408.01713,365.89517a51.59667,51.59667,0,0,0-12.93417-3.99,16.6899,16.6899,0,0,1,9.28845,5.834,23.7861,23.7861,0,0,1,2.84343,5.06875,52.16706,52.16706,0,0,0-43.75766.90674c3.267,7.1576,13.39325,11.06348,20.153,13.67634q11.10368,4.28655,22.46743,7.83854-3.34545-2.71994-6.6909-5.43227,7.55166,1.1993,15.10711,2.40243a26.16935,26.16935,0,0,0-1.05456-8.9055c2.87577,2.33234,6.73171,3.114,9.87244,5.09525,5.88753,3.71079,8.33586,10.87224,11.5455,17.04664a11.00993,11.00993,0,0,0,3.37413,4.31525A52.049,52.049,0,0,0,408.01713,365.89517Z" transform="translate(-37.66167 -65.36599)"/>
  </g>
  <path d="M 259.228 171.912 C 259.244 171.9 259.261 171.89 259.279 171.88 C 258.133 172.303 257.016 172.781 255.929 173.313 C 243.496 179.398 235.614 192.033 235.616 205.875 C 235.616 206.168 235.619 206.462 235.627 206.754 C 236.753 206.725 237.86 206.459 238.877 205.974 C 247.712 201.852 253.012 189.236 255.093 180.438 C 255.839 177.289 256.553 173.739 259.228 171.912 Z" style="fill: rgb(108, 78, 36);"/>
  <path d="M 286.964 172.929 C 284.097 171.612 281.068 170.677 277.956 170.15 C 280.508 170.738 282.788 172.17 284.425 174.214 C 285.227 175.305 285.892 176.491 286.405 177.744 C 276.645 173.477 265.504 173.708 255.929 178.376 C 258.205 183.361 265.257 186.081 269.965 187.901 C 275.121 189.892 280.337 191.711 285.613 193.36 C 284.06 192.097 282.507 190.836 280.953 189.577 C 284.459 190.134 287.967 190.692 291.475 191.25 C 291.589 189.156 291.34 187.058 290.74 185.048 C 292.743 186.672 295.429 187.216 297.616 188.596 C 301.717 191.181 303.422 196.169 305.657 200.469 C 306.175 201.653 306.983 202.687 308.007 203.474 C 307.127 190.204 299.051 178.48 286.964 172.929 Z" style="fill: rgb(108, 78, 36);"/>
  <path d="M 231.486 199.899 C 231.486 199.899 268.788 153.538 311.951 199.899 L 308.22 189.508 C 308.22 189.508 287.971 159.933 273.583 166.327 C 259.196 172.722 245.075 177.252 245.075 177.252 Z" opacity="0.1" style=""/>
  <path d="M 231.486 199.081 C 231.486 199.081 268.788 152.72 311.951 199.081 L 308.22 188.689 C 308.22 188.689 287.971 159.115 273.583 165.509 C 259.196 171.904 245.075 176.433 245.075 176.433 Z" style="fill: rgb(255, 109, 100);"/>
  <path d="M 200.846 298.997 C 200.846 298.997 192.853 320.312 204.043 339.496 C 215.234 358.68 194.185 366.673 194.185 366.673" opacity="0.1" style=""/>
  <path d="M 330.335 279.813 C 330.335 279.813 344.189 297.398 335.13 313.118 C 326.071 328.838 326.605 366.673 326.605 366.673" opacity="0.1" style=""/>
  <path d="M 188.59 382.393 L 342.591 382.393 C 349.654 382.393 355.38 388.119 355.38 395.182 L 355.38 395.182 C 355.38 395.182 355.38 395.182 355.38 395.182 L 175.801 395.182 C 175.801 395.182 175.801 395.182 175.801 395.182 L 175.801 395.182 C 175.801 388.119 181.527 382.393 188.59 382.393 Z" fill="#535461" style=""/>
  <path d="M 211.756 294.468 L 319.425 294.468 C 334.426 294.468 346.587 306.628 346.587 321.63 L 346.587 385.324 C 346.587 385.324 346.587 385.324 346.587 385.324 L 184.593 385.324 C 184.593 385.324 184.593 385.324 184.593 385.324 L 184.593 321.63 C 184.593 306.628 196.754 294.468 211.756 294.468 Z" fill="#535461" style=""/>
  <circle cx="259.072" cy="313.602" r="9.592" fill="#fff" style="" transform="matrix(1, 0, 0, 1.000017, 6.385145, 30.284626)"/>
  <path d="M 233.618 178.162 C 233.618 178.162 270.279 141.519 309.819 177.493" fill="none" stroke="#000" stroke-miterlimit="10" opacity="0.1" style=""/>
  <rect x="315.401" y="175.827" width="3.682" height="20.866" style="fill: rgb(83, 84, 97);"/>
  <path d="M 310.492 189.329 L 310.492 189.329 C 317.496 189.329 323.175 195.007 323.175 202.012 L 323.175 202.83 C 323.175 209.835 317.496 215.514 310.492 215.514 L 310.492 215.514 C 310.492 215.514 310.492 215.514 310.492 215.514 L 310.492 189.329 C 310.492 189.329 310.492 189.329 310.492 189.329 Z" style=""/>
  <rect x="308.037" y="188.102" width="5.728" height="28.639" rx="4.112" style="fill: rgb(83, 84, 97);"/>
  <rect x="-227.975" y="-195.222" width="3.725" height="21.109" transform="matrix(-1, 0, 0, -1, 0, 0)" style="fill: rgb(83, 84, 97);"/>
  <path d="M 220.111 187.773 L 220.111 187.773 C 227.197 187.773 232.942 193.518 232.942 200.603 L 232.942 201.432 C 232.942 208.518 227.197 214.262 220.111 214.262 L 220.111 214.262 C 220.111 214.262 220.111 214.262 220.111 214.262 L 220.111 187.773 C 220.111 187.773 220.111 187.773 220.111 187.773 Z" style="" transform="matrix(-1, 0, 0, -1, 453.052994, 402.034988)"/>
  <rect x="-235.426" y="-215.504" width="5.795" height="28.973" rx="4.112" transform="matrix(-1, 0, 0, -1, 0, 0)" style="fill: rgb(83, 84, 97);"/>
  <path d="M 314.965 153.525 C 309.98 143.159 299.122 130.625 275.715 129.625 L 275.717 129.596 L 275.435 129.61 L 275.417 129.609 L 275.417 129.61 L 267.125 130.005 L 267.126 130.046 C 243.873 131.116 233.066 143.601 228.096 153.934 C 224.792 160.935 223.038 168.567 222.956 176.307 L 225.819 176.237 L 228.682 176.172 C 228.807 169.271 230.396 162.477 233.344 156.238 C 239.658 143.274 251.271 136.377 267.864 135.741 L 267.863 135.736 L 275.198 135.33 L 275.198 135.332 C 291.79 135.969 303.403 142.864 309.717 155.829 C 312.665 162.068 314.254 168.863 314.379 175.762 L 317.242 175.828 L 320.105 175.898 C 320.023 168.157 318.27 160.526 314.965 153.525 Z" style=""/>
  <rect x="55.22" y="395.351" width="390.565" height="104.864" fill="#d6d6e3" style=""/>
  <rect x="55.22" y="402.409" width="390.565" height="13.612" opacity="0.1" style=""/>
  <rect y="393.839" width="442.957" height="13.612" fill="#d6d6e3" x="29.023" style=""/>
  <path d="M 332.338 359.987 C 332.338 359.987 349.054 390.632 390.842 382.274 C 432.63 373.917 412.432 459.584 412.432 459.584 C 412.432 459.584 405.594 500.45 410.406 500.214" fill="none" stroke="#535461" stroke-miterlimit="10" stroke-width="3" style=""/>
</svg>